<svg width="25" height="25" viewBox="0 0 25 25" fill="none" xmlns="http://www.w3.org/2000/svg">
<path d="M13.5415 3.125C8.36442 3.125 4.1665 7.32292 4.1665 12.5H1.0415L5.09359 16.5521L5.1665 16.6979L9.37484 12.5H6.24984C6.24984 8.46875 9.51025 5.20833 13.5415 5.20833C17.5728 5.20833 20.8332 8.46875 20.8332 12.5C20.8332 16.5312 17.5728 19.7917 13.5415 19.7917C11.5311 19.7917 9.70817 18.9688 8.39567 17.6458L6.9165 19.125C8.61442 20.8229 10.9478 21.875 13.5415 21.875C18.7186 21.875 22.9165 17.6771 22.9165 12.5C22.9165 7.32292 18.7186 3.125 13.5415 3.125ZM12.4998 8.33333V13.5417L16.9582 16.1875L17.7082 14.9271L14.0623 12.7604V8.33333H12.4998Z"/>
</svg>
