<svg width="25" height="25" viewBox="0 0 25 25" fill="none" xmlns="http://www.w3.org/2000/svg">
<path d="M19.9375 13.4792C19.9792 13.1667 20 12.8438 20 12.5C20 12.1667 19.9792 11.8333 19.9271 11.5208L22.0417 9.875C22.2292 9.72917 22.2813 9.44792 22.1667 9.23958L20.1667 5.78125C20.0417 5.55208 19.7813 5.47917 19.5521 5.55208L17.0625 6.55208C16.5417 6.15625 15.9896 5.82292 15.375 5.57292L15 2.92708C14.9584 2.67708 14.75 2.5 14.5 2.5H10.5C10.25 2.5 10.0521 2.67708 10.0105 2.92708L9.63545 5.57292C9.02087 5.82292 8.45837 6.16667 7.94795 6.55208L5.45837 5.55208C5.2292 5.46875 4.96878 5.55208 4.84378 5.78125L2.8542 9.23958C2.7292 9.45833 2.77087 9.72917 2.9792 9.875L5.09378 11.5208C5.0417 11.8333 5.00003 12.1771 5.00003 12.5C5.00003 12.8229 5.02087 13.1667 5.07295 13.4792L2.95837 15.125C2.77087 15.2708 2.71878 15.5521 2.83337 15.7604L4.83337 19.2188C4.95837 19.4479 5.21878 19.5208 5.44795 19.4479L7.93753 18.4479C8.45837 18.8438 9.01045 19.1771 9.62503 19.4271L10 22.0729C10.0521 22.3229 10.25 22.5 10.5 22.5H14.5C14.75 22.5 14.9584 22.3229 14.9896 22.0729L15.3646 19.4271C15.9792 19.1771 16.5417 18.8438 17.0521 18.4479L19.5417 19.4479C19.7709 19.5313 20.0313 19.4479 20.1563 19.2188L22.1563 15.7604C22.2813 15.5313 22.2292 15.2708 22.0313 15.125L19.9375 13.4792ZM12.5 16.25C10.4375 16.25 8.75003 14.5625 8.75003 12.5C8.75003 10.4375 10.4375 8.75 12.5 8.75C14.5625 8.75 16.25 10.4375 16.25 12.5C16.25 14.5625 14.5625 16.25 12.5 16.25Z" />
</svg>
