<svg width="52" height="57" viewBox="0 0 52 57" fill="none" xmlns="http://www.w3.org/2000/svg">
<path d="M20.9097 16.8907C10.2984 16.5834 -2.18562 3.90095 2.03531 17.4563C4.46469 25.2492 12.6791 29.0477 20.9097 28.932C29.1403 29.0477 37.3547 25.2537 39.7841 17.4563C44.005 3.90095 31.5209 16.5834 20.9097 16.8907Z" fill="#E59600"/>
<path d="M21.0112 40.3809H17.3875V45.1369C17.3875 47.2877 18.8622 49.0289 20.6822 49.0289H21.3403C23.1603 49.0289 24.635 47.2833 24.635 45.1369V40.3809H21.0112ZM31.8134 23.0583H10.0059C7.65375 23.0583 5.73219 25.3027 5.73219 28.0502C5.73219 30.7978 7.65375 33.0422 10.0059 33.0422H31.8175C34.1697 33.0422 36.0912 30.7978 36.0912 28.0502C36.0912 25.3027 34.1656 23.0583 31.8134 23.0583Z" fill="#EDC391"/>
<path d="M20.9097 5.83804C13.9628 5.83804 7.53188 13.9784 7.53188 25.6945C7.53188 37.3484 14.1578 43.1062 20.9097 43.1062C27.6616 43.1062 34.2875 37.3484 34.2875 25.6945C34.2875 13.9784 27.8566 5.83804 20.9097 5.83804Z" fill="#F9DDBD"/>
<path d="M11.6472 23.085C12.8456 21.2191 15.5797 21.0455 17.1437 22.4304C17.3916 22.6486 17.7206 22.9603 17.8222 23.3032C17.9806 23.8643 17.4931 24.3007 17.0137 24.1671C16.7091 24.0825 16.4247 23.9044 16.12 23.802C15.5716 23.6105 15.1734 23.5615 14.6778 23.557C13.9466 23.5526 13.4753 23.655 12.7806 23.9623C12.4962 24.0914 12.2606 24.2918 11.9356 24.1448C11.5619 23.9756 11.4237 23.4546 11.6472 23.085ZM29.38 24.1448C29.2622 24.0914 29.1525 24.0157 29.0347 23.9623C28.3197 23.6327 27.9134 23.5526 27.1375 23.557C26.455 23.5615 26.0447 23.6639 25.5166 23.8643C25.1875 23.989 24.7772 24.2962 24.4156 24.176C23.8875 23.9979 23.9037 23.3655 24.1922 22.9603C24.5375 22.4838 25.0087 22.1231 25.5166 21.8827C26.6825 21.3305 28.1084 21.4062 29.2053 22.1231C29.5669 22.3591 29.9569 22.6798 30.1722 23.085C30.4728 23.6595 29.9975 24.4209 29.38 24.1448Z" fill="#454140"/>
<path d="M14.6941 28.9542C15.78 28.9542 16.6603 27.9554 16.6603 26.7232C16.6603 25.491 15.78 24.4922 14.6941 24.4922C13.6081 24.4922 12.7278 25.491 12.7278 26.7232C12.7278 27.9554 13.6081 28.9542 14.6941 28.9542Z" fill="#312D2D"/>
<path d="M27.1253 28.9542C28.2112 28.9542 29.0916 27.9554 29.0916 26.7232C29.0916 25.491 28.2112 24.4922 27.1253 24.4922C26.0394 24.4922 25.1591 25.491 25.1591 26.7232C25.1591 27.9554 26.0394 28.9542 27.1253 28.9542Z" fill="#312D2D"/>
<path d="M24.3141 34.3069C23.0425 35.1352 18.8744 35.1352 17.6028 34.3069C16.8716 33.8304 16.1281 34.5607 16.4288 35.2866C16.7253 36.0035 19.0003 37.6601 20.9666 37.6601C22.9328 37.6601 25.1753 36.0035 25.4759 35.2866C25.7806 34.5563 25.0453 33.8304 24.3141 34.3069Z" fill="#444444"/>
<path d="M22.4494 30.7666C22.4088 30.7488 22.3641 30.7355 22.3194 30.731H19.5C19.4553 30.7355 19.4147 30.7488 19.37 30.7666C19.1141 30.8824 18.9719 31.1719 19.0938 31.4791C19.2156 31.7864 19.7763 32.6548 20.9097 32.6548C22.0431 32.6548 22.6038 31.7864 22.7256 31.4791C22.8475 31.1719 22.7053 30.8824 22.4494 30.7666Z" fill="#DBA689"/>
<path d="M35.4941 25.65L35.4372 25.8103L35.3884 25.9528L35.2503 26.3402C35.2381 26.3803 35.2259 26.4159 35.2097 26.456L34.2875 29.0388C34.2347 29.1902 34.0356 29.1769 34.0031 29.0166C33.9503 28.7672 33.8813 28.4377 33.8 28.0458C33.7106 27.596 33.5969 27.0616 33.475 26.4827C33.2394 25.3739 32.9631 24.0914 32.6828 22.8534C32.5284 22.1855 32.3781 21.5264 32.2319 20.9163C32.1059 20.4087 31.9881 19.9366 31.8744 19.5181C31.7728 19.1351 31.6753 18.7922 31.5859 18.5116C31.5575 18.4137 31.5291 18.3246 31.5006 18.2445C31.0822 17.0243 29.9284 16.3163 28.7584 16.5478C26.9628 16.9041 24.1028 17.3494 20.9422 17.3494C20.9341 17.3494 20.9219 17.3449 20.9097 17.3449C20.8975 17.3449 20.8894 17.3494 20.8772 17.3494C17.7206 17.3494 14.8566 16.9041 13.0609 16.5478C11.8909 16.3163 10.7372 17.0243 10.3188 18.2445C10.0303 19.0816 9.62813 20.7026 9.22594 22.4616C9.17719 22.6753 9.12844 22.8891 9.07969 23.1073C9.0025 23.4368 8.92938 23.7752 8.85625 24.1092C8.79531 24.3764 8.73844 24.6436 8.68156 24.9063C8.6775 24.9108 8.6775 24.9152 8.6775 24.9241C8.62063 25.1824 8.56375 25.4407 8.51094 25.6945C8.50688 25.7034 8.50688 25.7079 8.50688 25.7124C8.45 25.9662 8.39719 26.2156 8.34844 26.4516C8.24281 26.9459 8.14531 27.409 8.06 27.8142C7.99906 28.1081 7.94219 28.3709 7.8975 28.6024C7.865 28.7583 7.83656 28.9008 7.81219 29.021C7.80813 29.0433 7.8 29.0611 7.79188 29.0745C7.77936 29.1026 7.75962 29.126 7.73509 29.142C7.71056 29.1579 7.68231 29.1657 7.65381 29.1643C7.62532 29.1629 7.59782 29.1523 7.57471 29.134C7.5516 29.1157 7.53389 29.0903 7.52375 29.0611C7.24344 28.2774 6.71125 26.7499 6.46344 26.0374L6.435 25.9528C6.40656 25.8727 6.38219 25.8059 6.36594 25.7569L6.32938 25.65C6.32938 25.65 5.90688 23.0716 6.03688 19.6383C6.04094 19.527 6.045 19.4112 6.05313 19.2954C6.06125 19.0683 6.0775 18.8323 6.09375 18.5963C6.09781 18.4983 6.10594 18.4003 6.11406 18.3023C6.2075 17.1089 6.37406 15.8398 6.65031 14.5662H35.1691C36.3878 20.1771 35.4941 25.65 35.4941 25.65Z" fill="#312D2D"/>
<path d="M35.4941 25.65L35.4372 25.8103L35.3884 25.9528C35.3519 26.0597 35.3031 26.1933 35.2503 26.3402C35.2381 26.3803 35.2259 26.4159 35.2097 26.456C34.9375 27.2442 34.5231 28.4154 34.2875 29.0656C34.2765 29.0982 34.2562 29.126 34.2295 29.1449C34.2029 29.1637 34.1713 29.1725 34.1397 29.17C34.1081 29.1675 34.078 29.1538 34.0541 29.1309C34.0302 29.1081 34.0138 29.0773 34.0072 29.0433C34.0072 29.0344 34.0031 29.0255 34.0031 29.0166C33.9503 28.7672 33.8813 28.4377 33.8 28.0458C33.7066 27.596 33.5969 27.0616 33.475 26.4827C33.2394 25.3739 32.9631 24.0914 32.6828 22.8534C32.5325 22.181 32.3781 21.5264 32.2319 20.9163C32.1059 20.4087 31.9881 19.9366 31.8744 19.5181C31.7728 19.1351 31.6753 18.7922 31.5859 18.5116C31.5575 18.4137 31.5291 18.3246 31.5006 18.2445C31.0822 17.0243 29.9284 16.3163 28.7584 16.5478C26.9628 16.9041 24.1028 17.3494 20.9422 17.3494C20.9341 17.3494 20.9219 17.3449 20.9097 17.3449C20.8975 17.3449 20.8894 17.3494 20.8772 17.3494C17.7206 17.3494 14.8566 16.9041 13.0609 16.5478C11.8909 16.3163 10.7372 17.0243 10.3188 18.2445C10.0303 19.0816 9.62813 20.7026 9.22594 22.4616C9.17719 22.6753 9.12844 22.8891 9.07969 23.1073C9.0025 23.4368 8.92938 23.7752 8.85625 24.1092C8.79531 24.3764 8.73844 24.6436 8.68156 24.9063C8.6775 24.9108 8.6775 24.9152 8.6775 24.9241C8.62063 25.1869 8.56375 25.4452 8.51094 25.6945C8.50688 25.7034 8.50688 25.7079 8.50688 25.7124C8.45 25.9662 8.40125 26.2111 8.34844 26.4516C8.24281 26.9459 8.14531 27.409 8.06 27.8142C7.99906 28.1081 7.94625 28.3753 7.8975 28.6024C7.865 28.7583 7.83656 28.9008 7.81219 29.021C7.80813 29.0433 7.8 29.0611 7.79188 29.0745C7.73094 29.1769 7.57656 29.1724 7.52781 29.0433L6.46344 26.0374L6.435 25.9528L6.36594 25.7569L6.32938 25.65C6.32938 25.65 5.90688 23.0716 6.03688 19.6383C6.04094 19.527 6.045 19.4112 6.05313 19.2954C6.06125 19.0683 6.0775 18.8323 6.09375 18.5963C6.09781 18.4983 6.10594 18.4003 6.11406 18.3023C6.2075 17.1089 6.37406 15.8398 6.65031 14.5662H35.1691C36.3878 20.1771 35.4941 25.65 35.4941 25.65Z" fill="url(#paint0_radial_203_2)"/>
<path d="M31.4803 12.9319C29.5222 7.59258 27.5966 3.37992 25.1306 3.05484C24.4725 2.97023 22.75 2.72976 21.0072 2.72531C19.1994 2.72531 17.3712 2.96578 16.6928 3.05484C14.2269 3.37992 12.3012 7.59258 10.3391 12.9274C9.27469 15.822 32.5447 15.822 31.4803 12.9319Z" fill="url(#paint1_linear_203_2)"/>
<path d="M37.2003 11.0081C33.3694 11.7696 26.9709 12.6558 21.1412 12.6825H20.6781C14.8484 12.6558 8.45 11.7696 4.61906 11.0081C1.31219 10.3491 1.19437 12.7181 1.19437 12.7181C1.19437 12.7181 2.2425 11.2976 4.08281 13.2659C6.93875 16.3207 11.5903 21.1702 20.6456 21.2102C20.735 21.2102 20.8203 21.2058 20.9097 21.2058C20.9991 21.2058 21.0844 21.2102 21.1737 21.2102C30.2331 21.1657 34.8806 16.3207 37.7366 13.2659C39.5769 11.2976 40.625 12.7181 40.625 12.7181C40.625 12.7181 40.5072 10.3491 37.2003 11.0081Z" fill="url(#paint2_linear_203_2)"/>
<path d="M20.9097 12.2149C17.8466 12.2149 13.9953 11.8809 12.0372 11.6939C13.6053 10.8523 16.7741 9.50298 20.9097 9.50298C25.0453 9.50298 28.21 10.8567 29.7822 11.6939C27.8241 11.8809 23.9728 12.2149 20.9097 12.2149Z" fill="#78909C"/>
<path d="M20.9097 9.92601C23.9728 9.92601 26.4956 10.683 28.2059 11.4045C26.1381 11.5826 23.2863 11.783 20.9097 11.783C18.5331 11.783 15.6812 11.5826 13.6134 11.4045C15.9429 10.4281 18.4157 9.92703 20.9097 9.92601ZM20.9097 9.07101C14.7428 9.07101 10.7331 11.9878 10.7331 11.9878C10.7331 11.9878 16.5709 12.6424 20.9097 12.6424C25.2484 12.6424 31.0863 11.9878 31.0863 11.9878C31.0863 11.9878 27.0766 9.07101 20.9097 9.07101Z" fill="#90A4AE"/>
<path d="M43.6637 48.5435V55.2188" stroke="#D18100" stroke-width="5" stroke-miterlimit="10"/>
<path d="M44.135 51.9947H43.1925C42.6278 51.9947 42.1728 51.9947 42.1728 50.877V45.5287H45.1506V50.877C45.1547 51.8255 44.6956 51.9947 44.135 51.9947Z" fill="#636363"/>
<path d="M47.4216 44.3086C46.6741 44.3086 44.2772 44.3353 43.7369 44.3353C42.8756 44.3353 40.5925 44.2507 39.6622 44.2507C36.6234 44.2507 36.5991 32.3653 36.5991 32.3653V43.369C36.5991 46.3481 37.9884 47.3011 40.4259 47.3991H46.6741C48.8759 47.3991 49.66 45.747 49.66 43.7698L49.5056 41.6055C49.4975 41.61 48.9084 44.3086 47.4216 44.3086Z" fill="#616161"/>
<path d="M50.1191 17.1C50.0744 16.913 49.8225 16.9174 49.7819 17.1045L49.3147 19.1885L48.5022 42.4249C48.5022 42.4249 48.4981 42.5452 48.4981 42.6075C48.4981 43.2933 48.0147 43.7831 47.3891 43.7831C46.7634 43.7831 46.2475 43.2844 46.2475 42.5986C46.2475 42.5006 46.4912 19.2731 46.4912 19.2731L46.0078 16.9887C45.9631 16.8016 45.7153 16.8016 45.6706 16.9842L45.1222 19.2331L44.8703 42.4561C44.8703 43.2131 44.4519 43.7876 43.7612 43.7876C43.0706 43.7876 42.51 43.173 42.51 42.416L42.3881 19.1841L41.9087 16.9842C41.8641 16.8016 41.6203 16.8016 41.5716 16.9842L40.9622 19.2776L40.9744 42.3715C40.9744 43.1552 40.4787 43.792 39.7637 43.792C38.9675 43.792 38.3825 43.1552 38.3825 42.3715L37.5537 19.1885L37.0094 16.9753C36.9647 16.7883 36.7656 16.8239 36.7169 17.0065L36.1603 19.2331L36.8103 43.1152C36.8103 45.128 37.9803 46.6509 40.4178 46.7534H46.6659C48.8678 46.7534 49.7128 45.0923 49.7128 43.1152L50.5903 19.3355L50.1191 17.1Z" fill="url(#paint3_linear_203_2)"/>
<path d="M38.8903 53.7982C38.8903 45.8761 28.5066 44.0503 24.8097 43.654L21.6937 48.3476H20.3409L17.2737 43.6451C13.2722 44.0592 9.86781 45.1013 7.41 46.6643C4.57437 48.4678 3.14031 50.868 3.14031 53.7938V55.2188H38.8984V53.7982H38.8903Z" fill="url(#paint4_linear_203_2)"/>
<path d="M33.9788 53.4731L31.0659 51.015L31.1675 50.8413L20.6091 51.0595L10.9119 50.8413L11.0134 51.015L8.10063 53.4731L8.03156 55.2187H34.0478L33.9788 53.4731Z" fill="url(#paint5_linear_203_2)"/>
<path d="M13.7231 47.7063L13.6784 44.224C13.6784 44.224 11.3262 44.7584 10.4812 45.1591L9.295 48.0982L10.8306 50.7077L13.7231 47.7063Z" fill="url(#paint6_linear_203_2)"/>
<path d="M28.3562 47.7063L28.4009 44.224C28.4009 44.224 30.7531 44.7584 31.5981 45.1591L32.7844 48.0982L31.2447 50.7077L28.3562 47.7063Z" fill="url(#paint7_linear_203_2)"/>
<path d="M29.6441 51.4826L31.7444 51.919C32.0141 51.9738 32.2928 51.9096 32.5195 51.7403C32.7463 51.5709 32.9028 51.3103 32.955 51.015C33.005 50.7193 32.9464 50.4139 32.792 50.1653C32.6375 49.9168 32.3997 49.7452 32.1303 49.688L30.03 49.2516C29.7602 49.1967 29.4816 49.261 29.2549 49.4303C29.0281 49.5996 28.8716 49.8603 28.8194 50.1556C28.7137 50.7745 29.0794 51.3668 29.6441 51.4826ZM12.4353 51.4826L10.335 51.919C9.77437 52.0348 9.23 51.6295 9.12437 51.015C9.07435 50.7193 9.13295 50.4139 9.28742 50.1653C9.44189 49.9168 9.6797 49.7452 9.94906 49.688L12.0494 49.2516C12.3191 49.1967 12.5978 49.261 12.8245 49.4303C13.0513 49.5996 13.2078 49.8603 13.26 50.1556C13.3656 50.7745 13 51.3668 12.4353 51.4826Z" fill="#BDBDBD"/>
<path d="M17.2169 43.654C16.1566 43.7653 15.1409 43.9256 14.17 44.1216L14.0684 53.4509L21.0112 48.3164L17.2169 43.654Z" fill="url(#paint8_linear_203_2)"/>
<path d="M27.8525 44.1349C26.65 43.8856 25.5816 43.7386 24.8097 43.654L21.0153 48.3209L27.9581 53.4553L27.8525 44.1349Z" fill="url(#paint9_linear_203_2)"/>
<defs>
<radialGradient id="paint0_radial_203_2" cx="0" cy="0" r="1" gradientUnits="userSpaceOnUse" gradientTransform="translate(20.9109 25.0309) scale(14.3955 17.8026)">
<stop offset="0.794" stop-color="#454140" stop-opacity="0"/>
<stop offset="1" stop-color="#454140"/>
</radialGradient>
<linearGradient id="paint1_linear_203_2" x1="20.9101" y1="3.3728" x2="20.9101" y2="13.9646" gradientUnits="userSpaceOnUse">
<stop offset="0.003" stop-color="#FFF59D"/>
<stop offset="0.553" stop-color="#FEE565"/>
<stop offset="0.996" stop-color="#FDD835"/>
</linearGradient>
<linearGradient id="paint2_linear_203_2" x1="20.9097" y1="11.8217" x2="20.9097" y2="24.7482" gradientUnits="userSpaceOnUse">
<stop offset="0.003" stop-color="#FFF59D"/>
<stop offset="0.553" stop-color="#FEE565"/>
<stop offset="0.996" stop-color="#FDD835"/>
</linearGradient>
<linearGradient id="paint3_linear_203_2" x1="43.3786" y1="48.3022" x2="43.3786" y2="22.1757" gradientUnits="userSpaceOnUse">
<stop stop-color="#757575"/>
<stop offset="0.482" stop-color="#9E9E9E"/>
</linearGradient>
<linearGradient id="paint4_linear_203_2" x1="21.0112" y1="55.2188" x2="21.0112" y2="43.6486" gradientUnits="userSpaceOnUse">
<stop stop-color="#709E3B"/>
<stop offset="0.328" stop-color="#73A13E"/>
<stop offset="0.595" stop-color="#7DAB47"/>
<stop offset="0.839" stop-color="#8DBC57"/>
<stop offset="1" stop-color="#9CCC65"/>
</linearGradient>
<linearGradient id="paint5_linear_203_2" x1="21.0401" y1="55.4494" x2="21.0401" y2="44.4983" gradientUnits="userSpaceOnUse">
<stop stop-color="#1E88E5"/>
<stop offset="1" stop-color="#1565C0"/>
</linearGradient>
<linearGradient id="paint6_linear_203_2" x1="11.5107" y1="55.2152" x2="11.5107" y2="44.8051" gradientUnits="userSpaceOnUse">
<stop stop-color="#1E88E5"/>
<stop offset="1" stop-color="#1565C0"/>
</linearGradient>
<linearGradient id="paint7_linear_203_2" x1="30.5691" y1="55.2152" x2="30.5691" y2="44.8051" gradientUnits="userSpaceOnUse">
<stop stop-color="#1E88E5"/>
<stop offset="1" stop-color="#1565C0"/>
</linearGradient>
<linearGradient id="paint8_linear_203_2" x1="17.5398" y1="44.651" x2="17.5398" y2="51.2314" gradientUnits="userSpaceOnUse">
<stop stop-color="#AED581"/>
<stop offset="1" stop-color="#8BC34A"/>
</linearGradient>
<linearGradient id="paint9_linear_203_2" x1="24.4827" y1="43.6798" x2="24.4827" y2="51.4434" gradientUnits="userSpaceOnUse">
<stop stop-color="#AED581"/>
<stop offset="1" stop-color="#8BC34A"/>
</linearGradient>
</defs>
</svg>
