<svg width="78" height="78" viewBox="0 0 78 78" fill="none" xmlns="http://www.w3.org/2000/svg">
<g filter="url(#filter0_d_9_6)">
<circle cx="39" cy="35" r="35" fill="white"/>
</g>
<path d="M36.9097 19.8907C26.2985 19.5834 13.8144 6.90095 18.0353 20.4563C20.4647 28.2492 28.6791 32.0477 36.9097 31.932C45.1403 32.0477 53.3547 28.2537 55.7841 20.4563C60.005 6.90095 47.521 19.5834 36.9097 19.8907Z" fill="#E59600"/>
<path d="M37.0112 43.3809H33.3875V48.1369C33.3875 50.2877 34.8622 52.0289 36.6822 52.0289H37.3403C39.1603 52.0289 40.635 50.2833 40.635 48.1369V43.3809H37.0112ZM47.8134 26.0583H26.0059C23.6537 26.0583 21.7322 28.3027 21.7322 31.0502C21.7322 33.7978 23.6537 36.0422 26.0059 36.0422H47.8175C50.1697 36.0422 52.0912 33.7978 52.0912 31.0502C52.0912 28.3027 50.1656 26.0583 47.8134 26.0583Z" fill="#EDC391"/>
<path d="M36.9098 8.83804C29.9629 8.83804 23.532 16.9784 23.532 28.6945C23.532 40.3484 30.1579 46.1062 36.9098 46.1062C43.6617 46.1062 50.2876 40.3484 50.2876 28.6945C50.2876 16.9784 43.8567 8.83804 36.9098 8.83804Z" fill="#F9DDBD"/>
<path d="M27.6472 26.085C28.8456 24.2191 31.5797 24.0455 33.1437 25.4304C33.3915 25.6486 33.7206 25.9603 33.8222 26.3032C33.9806 26.8643 33.4931 27.3007 33.0137 27.1671C32.709 27.0825 32.4247 26.9044 32.12 26.802C31.5715 26.6105 31.1734 26.5615 30.6778 26.557C29.9465 26.5526 29.4753 26.655 28.7806 26.9623C28.4962 27.0914 28.2606 27.2918 27.9356 27.1448C27.5618 26.9756 27.4237 26.4546 27.6472 26.085ZM45.38 27.1448C45.2622 27.0914 45.1525 27.0157 45.0347 26.9623C44.3197 26.6327 43.9134 26.5526 43.1375 26.557C42.455 26.5615 42.0447 26.6639 41.5165 26.8643C41.1875 26.989 40.7772 27.2962 40.4156 27.176C39.8875 26.9979 39.9037 26.3655 40.1922 25.9603C40.5375 25.4838 41.0087 25.1231 41.5165 24.8827C42.6825 24.3305 44.1084 24.4062 45.2053 25.1231C45.5669 25.3591 45.9568 25.6798 46.1722 26.085C46.4728 26.6595 45.9975 27.4209 45.38 27.1448Z" fill="#454140"/>
<path d="M30.694 31.9542C31.78 31.9542 32.6603 30.9554 32.6603 29.7232C32.6603 28.491 31.78 27.4922 30.694 27.4922C29.6081 27.4922 28.7278 28.491 28.7278 29.7232C28.7278 30.9554 29.6081 31.9542 30.694 31.9542Z" fill="#312D2D"/>
<path d="M43.1252 31.9542C44.2111 31.9542 45.0914 30.9554 45.0914 29.7232C45.0914 28.491 44.2111 27.4922 43.1252 27.4922C42.0393 27.4922 41.1589 28.491 41.1589 29.7232C41.1589 30.9554 42.0393 31.9542 43.1252 31.9542Z" fill="#312D2D"/>
<path d="M40.3141 37.3069C39.0426 38.1352 34.8745 38.1352 33.6029 37.3069C32.8716 36.8304 32.1282 37.5607 32.4288 38.2866C32.7254 39.0035 35.0004 40.6601 36.9666 40.6601C38.9329 40.6601 41.1754 39.0035 41.476 38.2866C41.7807 37.5563 41.0454 36.8304 40.3141 37.3069Z" fill="#444444"/>
<path d="M38.4494 33.7666C38.4088 33.7488 38.3641 33.7355 38.3194 33.731H35.5001C35.4554 33.7355 35.4147 33.7488 35.3701 33.7666C35.1141 33.8824 34.9719 34.1719 35.0938 34.4791C35.2157 34.7864 35.7763 35.6548 36.9097 35.6548C38.0432 35.6548 38.6038 34.7864 38.7257 34.4791C38.8476 34.1719 38.7054 33.8824 38.4494 33.7666Z" fill="#DBA689"/>
<path d="M51.494 28.65L51.4371 28.8103L51.3884 28.9528L51.2502 29.3402C51.2381 29.3803 51.2259 29.4159 51.2096 29.456L50.2874 32.0388C50.2346 32.1902 50.0356 32.1769 50.0031 32.0166C49.9502 31.7672 49.8812 31.4376 49.7999 31.0458C49.7106 30.596 49.5968 30.0616 49.4749 29.4827C49.2393 28.3739 48.9631 27.0914 48.6827 25.8534C48.5284 25.1855 48.3781 24.5264 48.2318 23.9163C48.1059 23.4087 47.9881 22.9366 47.8743 22.518C47.7727 22.1351 47.6752 21.7922 47.5859 21.5116C47.5574 21.4137 47.529 21.3246 47.5006 21.2444C47.0821 20.0243 45.9284 19.3162 44.7584 19.5478C42.9627 19.9041 40.1027 20.3494 36.9421 20.3494C36.934 20.3494 36.9218 20.3449 36.9096 20.3449C36.8974 20.3449 36.8893 20.3494 36.8771 20.3494C33.7206 20.3494 30.8565 19.9041 29.0609 19.5478C27.8909 19.3162 26.7371 20.0243 26.3187 21.2444C26.0302 22.0816 25.6281 23.7026 25.2259 25.4616C25.1771 25.6753 25.1284 25.8891 25.0796 26.1073C25.0024 26.4368 24.9293 26.7752 24.8562 27.1092C24.7952 27.3764 24.7384 27.6436 24.6815 27.9063C24.6774 27.9108 24.6774 27.9152 24.6774 27.9241C24.6206 28.1824 24.5637 28.4407 24.5109 28.6945C24.5068 28.7034 24.5068 28.7079 24.5068 28.7123C24.4499 28.9662 24.3971 29.2155 24.3484 29.4516C24.2427 29.9459 24.1452 30.409 24.0599 30.8142C23.999 31.1081 23.9421 31.3709 23.8974 31.6024C23.8649 31.7583 23.8365 31.9008 23.8121 32.021C23.8081 32.0433 23.7999 32.0611 23.7918 32.0744C23.7793 32.1025 23.7596 32.126 23.735 32.142C23.7105 32.1579 23.6822 32.1657 23.6537 32.1643C23.6252 32.1628 23.5978 32.1523 23.5746 32.134C23.5515 32.1157 23.5338 32.0903 23.5237 32.0611C23.2434 31.2773 22.7112 29.7499 22.4634 29.0374L22.4349 28.9528C22.4065 28.8726 22.3821 28.8059 22.3659 28.7569L22.3293 28.65C22.3293 28.65 21.9068 26.0716 22.0368 22.6383C22.0409 22.5269 22.0449 22.4112 22.0531 22.2954C22.0612 22.0683 22.0774 21.8323 22.0937 21.5962C22.0977 21.4983 22.1059 21.4003 22.114 21.3023C22.2074 20.1089 22.374 18.8398 22.6502 17.5662H51.169C52.3877 23.1771 51.494 28.65 51.494 28.65Z" fill="#312D2D"/>
<path d="M51.494 28.65L51.4371 28.8103L51.3884 28.9528C51.3518 29.0597 51.3031 29.1933 51.2502 29.3402C51.2381 29.3803 51.2259 29.4159 51.2096 29.456C50.9374 30.2442 50.5231 31.4154 50.2874 32.0655C50.2765 32.0982 50.2561 32.126 50.2295 32.1448C50.2028 32.1637 50.1713 32.1725 50.1396 32.17C50.108 32.1675 50.078 32.1538 50.0541 32.1309C50.0302 32.108 50.0137 32.0773 50.0071 32.0433C50.0071 32.0344 50.0031 32.0255 50.0031 32.0166C49.9502 31.7672 49.8812 31.4376 49.7999 31.0458C49.7065 30.596 49.5968 30.0616 49.4749 29.4827C49.2393 28.3739 48.9631 27.0914 48.6827 25.8534C48.5324 25.181 48.3781 24.5264 48.2318 23.9163C48.1059 23.4087 47.9881 22.9366 47.8743 22.518C47.7727 22.1351 47.6752 21.7922 47.5859 21.5116C47.5574 21.4137 47.529 21.3246 47.5006 21.2444C47.0821 20.0243 45.9284 19.3162 44.7584 19.5478C42.9627 19.9041 40.1027 20.3494 36.9421 20.3494C36.934 20.3494 36.9218 20.3449 36.9096 20.3449C36.8974 20.3449 36.8893 20.3494 36.8771 20.3494C33.7206 20.3494 30.8565 19.9041 29.0609 19.5478C27.8909 19.3162 26.7371 20.0243 26.3187 21.2444C26.0302 22.0816 25.6281 23.7026 25.2259 25.4616C25.1771 25.6753 25.1284 25.8891 25.0796 26.1073C25.0024 26.4368 24.9293 26.7752 24.8562 27.1092C24.7952 27.3764 24.7384 27.6436 24.6815 27.9063C24.6774 27.9108 24.6774 27.9152 24.6774 27.9241C24.6206 28.1869 24.5637 28.4451 24.5109 28.6945C24.5068 28.7034 24.5068 28.7079 24.5068 28.7123C24.4499 28.9662 24.4012 29.2111 24.3484 29.4516C24.2427 29.9459 24.1452 30.409 24.0599 30.8142C23.999 31.1081 23.9462 31.3753 23.8974 31.6024C23.8649 31.7583 23.8365 31.9008 23.8121 32.021C23.8081 32.0433 23.7999 32.0611 23.7918 32.0744C23.7309 32.1769 23.5765 32.1724 23.5277 32.0433L22.4634 29.0374L22.4349 28.9528L22.3659 28.7569L22.3293 28.65C22.3293 28.65 21.9068 26.0716 22.0368 22.6383C22.0409 22.5269 22.0449 22.4112 22.0531 22.2954C22.0612 22.0683 22.0774 21.8323 22.0937 21.5962C22.0977 21.4983 22.1059 21.4003 22.114 21.3023C22.2074 20.1089 22.374 18.8398 22.6502 17.5662H51.169C52.3877 23.1771 51.494 28.65 51.494 28.65Z" fill="url(#paint0_radial_9_6)"/>
<path d="M47.4804 15.9319C45.5223 10.5926 43.5967 6.37992 41.1307 6.05484C40.4726 5.97023 38.7501 5.72976 37.0073 5.72531C35.1995 5.72531 33.3713 5.96578 32.6929 6.05484C30.227 6.37992 28.3013 10.5926 26.3392 15.9274C25.2748 18.822 48.5448 18.822 47.4804 15.9319Z" fill="url(#paint1_linear_9_6)"/>
<path d="M53.2003 14.0081C49.3693 14.7696 42.9709 15.6558 37.1412 15.6825H36.6781C30.8484 15.6558 24.45 14.7696 20.619 14.0081C17.3121 13.3491 17.1943 15.7181 17.1943 15.7181C17.1943 15.7181 18.2425 14.2976 20.0828 16.2659C22.9387 19.3207 27.5903 24.1702 36.6456 24.2103C36.735 24.2103 36.8203 24.2058 36.9096 24.2058C36.999 24.2058 37.0843 24.2103 37.1737 24.2103C46.2331 24.1657 50.8806 19.3207 53.7365 16.2659C55.5768 14.2976 56.625 15.7181 56.625 15.7181C56.625 15.7181 56.5071 13.3491 53.2003 14.0081Z" fill="url(#paint2_linear_9_6)"/>
<path d="M36.9096 15.2149C33.8465 15.2149 29.9952 14.8809 28.0371 14.6939C29.6052 13.8523 32.774 12.503 36.9096 12.503C41.0452 12.503 44.2099 13.8567 45.7821 14.6939C43.824 14.8809 39.9727 15.2149 36.9096 15.2149Z" fill="#78909C"/>
<path d="M36.9097 12.926C39.9728 12.926 42.4957 13.683 44.206 14.4045C42.1382 14.5826 39.2863 14.783 36.9097 14.783C34.5332 14.783 31.6813 14.5826 29.6135 14.4045C31.943 13.4281 34.4157 12.927 36.9097 12.926ZM36.9097 12.071C30.7428 12.071 26.7332 14.9878 26.7332 14.9878C26.7332 14.9878 32.571 15.6424 36.9097 15.6424C41.2485 15.6424 47.0863 14.9878 47.0863 14.9878C47.0863 14.9878 43.0766 12.071 36.9097 12.071Z" fill="#90A4AE"/>
<path d="M59.6638 51.5435V58.2188" stroke="#D18100" stroke-width="5" stroke-miterlimit="10"/>
<path d="M60.135 54.9947H59.1925C58.6279 54.9947 58.1729 54.9947 58.1729 53.877V48.5287H61.1507V53.877C61.1547 54.8255 60.6957 54.9947 60.135 54.9947Z" fill="#636363"/>
<path d="M63.4216 47.3086C62.6741 47.3086 60.2773 47.3353 59.7369 47.3353C58.8757 47.3353 56.5926 47.2507 55.6622 47.2507C52.6235 47.2507 52.5991 35.3653 52.5991 35.3653V46.369C52.5991 49.3481 53.9885 50.3011 56.426 50.3991H62.6741C64.876 50.3991 65.6601 48.747 65.6601 46.7698L65.5057 44.6056C65.4976 44.61 64.9085 47.3086 63.4216 47.3086Z" fill="#616161"/>
<path d="M66.1192 20.1C66.0745 19.913 65.8226 19.9174 65.782 20.1045L65.3148 22.1885L64.5023 45.4249C64.5023 45.4249 64.4982 45.5452 64.4982 45.6075C64.4982 46.2933 64.0148 46.7831 63.3892 46.7831C62.7635 46.7831 62.2476 46.2844 62.2476 45.5986C62.2476 45.5006 62.4913 22.2731 62.4913 22.2731L62.0079 19.9887C61.9632 19.8016 61.7154 19.8016 61.6707 19.9842L61.1223 22.2331L60.8704 45.4561C60.8704 46.2131 60.452 46.7876 59.7613 46.7876C59.0707 46.7876 58.5101 46.173 58.5101 45.416L58.3882 22.1841L57.9088 19.9842C57.8642 19.8016 57.6204 19.8016 57.5717 19.9842L56.9623 22.2776L56.9745 45.3715C56.9745 46.1552 56.4788 46.792 55.7638 46.792C54.9676 46.792 54.3826 46.1552 54.3826 45.3715L53.5538 22.1885L53.0095 19.9753C52.9648 19.7883 52.7657 19.8239 52.717 20.0065L52.1604 22.2331L52.8104 46.1152C52.8104 48.128 53.9804 49.6509 56.4179 49.7534H62.666C64.8679 49.7534 65.7129 48.0923 65.7129 46.1152L66.5904 22.3355L66.1192 20.1Z" fill="url(#paint3_linear_9_6)"/>
<path d="M54.8904 56.7982C54.8904 48.8761 44.5066 47.0503 40.8098 46.654L37.6938 51.3476H36.341L33.2738 46.6451C29.2723 47.0592 25.8679 48.1013 23.4101 49.6643C20.5744 51.4678 19.1404 53.868 19.1404 56.7938V58.2188H54.8985V56.7982H54.8904Z" fill="url(#paint4_linear_9_6)"/>
<path d="M49.9787 56.4731L47.0659 54.015L47.1674 53.8413L36.609 54.0595L26.9118 53.8413L27.0134 54.015L24.1006 56.4731L24.0315 58.2187H50.0477L49.9787 56.4731Z" fill="url(#paint5_linear_9_6)"/>
<path d="M29.723 50.7063L29.6784 47.224C29.6784 47.224 27.3262 47.7584 26.4812 48.1591L25.2949 51.0982L26.8305 53.7077L29.723 50.7063Z" fill="url(#paint6_linear_9_6)"/>
<path d="M44.3562 50.7063L44.4009 47.224C44.4009 47.224 46.7531 47.7584 47.5981 48.1591L48.7843 51.0982L47.2446 53.7077L44.3562 50.7063Z" fill="url(#paint7_linear_9_6)"/>
<path d="M45.6441 54.4826L47.7444 54.919C48.0141 54.9738 48.2928 54.9096 48.5195 54.7403C48.7463 54.5709 48.9028 54.3103 48.955 54.015C49.005 53.7193 48.9464 53.4139 48.792 53.1653C48.6375 52.9168 48.3997 52.7452 48.1303 52.688L46.03 52.2516C45.7602 52.1967 45.4816 52.261 45.2549 52.4303C45.0281 52.5996 44.8716 52.8603 44.8194 53.1556C44.7137 53.7745 45.0794 54.3668 45.6441 54.4826ZM28.4353 54.4826L26.335 54.919C25.7744 55.0348 25.23 54.6295 25.1244 54.015C25.0743 53.7193 25.1329 53.4139 25.2874 53.1653C25.4419 52.9168 25.6797 52.7452 25.9491 52.688L28.0494 52.2516C28.3191 52.1967 28.5978 52.261 28.8245 52.4303C29.0513 52.5996 29.2078 52.8603 29.26 53.1556C29.3656 53.7745 29 54.3668 28.4353 54.4826Z" fill="#BDBDBD"/>
<path d="M33.2168 46.654C32.1565 46.7653 31.1409 46.9256 30.1699 47.1216L30.0684 56.4509L37.0112 51.3164L33.2168 46.654Z" fill="url(#paint8_linear_9_6)"/>
<path d="M43.8526 47.1349C42.6501 46.8856 41.5816 46.7386 40.8098 46.654L37.0154 51.3209L43.9582 56.4553L43.8526 47.1349Z" fill="url(#paint9_linear_9_6)"/>
<defs>
<filter id="filter0_d_9_6" x="0" y="0" width="78" height="78" filterUnits="userSpaceOnUse" color-interpolation-filters="sRGB">
<feFlood flood-opacity="0" result="BackgroundImageFix"/>
<feColorMatrix in="SourceAlpha" type="matrix" values="0 0 0 0 0 0 0 0 0 0 0 0 0 0 0 0 0 0 127 0" result="hardAlpha"/>
<feOffset dy="4"/>
<feGaussianBlur stdDeviation="2"/>
<feColorMatrix type="matrix" values="0 0 0 0 0 0 0 0 0 0 0 0 0 0 0 0 0 0 0.25 0"/>
<feBlend mode="normal" in2="BackgroundImageFix" result="effect1_dropShadow_9_6"/>
<feBlend mode="normal" in="SourceGraphic" in2="effect1_dropShadow_9_6" result="shape"/>
</filter>
<radialGradient id="paint0_radial_9_6" cx="0" cy="0" r="1" gradientUnits="userSpaceOnUse" gradientTransform="translate(36.9108 28.0309) scale(14.3955 17.8026)">
<stop offset="0.794" stop-color="#454140" stop-opacity="0"/>
<stop offset="1" stop-color="#454140"/>
</radialGradient>
<linearGradient id="paint1_linear_9_6" x1="36.9102" y1="6.3728" x2="36.9102" y2="16.9646" gradientUnits="userSpaceOnUse">
<stop offset="0.003" stop-color="#FFF59D"/>
<stop offset="0.553" stop-color="#FEE565"/>
<stop offset="0.996" stop-color="#FDD835"/>
</linearGradient>
<linearGradient id="paint2_linear_9_6" x1="36.9096" y1="14.8217" x2="36.9096" y2="27.7483" gradientUnits="userSpaceOnUse">
<stop offset="0.003" stop-color="#FFF59D"/>
<stop offset="0.553" stop-color="#FEE565"/>
<stop offset="0.996" stop-color="#FDD835"/>
</linearGradient>
<linearGradient id="paint3_linear_9_6" x1="59.3787" y1="51.3022" x2="59.3787" y2="25.1757" gradientUnits="userSpaceOnUse">
<stop stop-color="#757575"/>
<stop offset="0.482" stop-color="#9E9E9E"/>
</linearGradient>
<linearGradient id="paint4_linear_9_6" x1="37.0113" y1="58.2188" x2="37.0113" y2="46.6486" gradientUnits="userSpaceOnUse">
<stop stop-color="#709E3B"/>
<stop offset="0.328" stop-color="#73A13E"/>
<stop offset="0.595" stop-color="#7DAB47"/>
<stop offset="0.839" stop-color="#8DBC57"/>
<stop offset="1" stop-color="#9CCC65"/>
</linearGradient>
<linearGradient id="paint5_linear_9_6" x1="37.04" y1="58.4494" x2="37.04" y2="47.4983" gradientUnits="userSpaceOnUse">
<stop stop-color="#1E88E5"/>
<stop offset="1" stop-color="#1565C0"/>
</linearGradient>
<linearGradient id="paint6_linear_9_6" x1="27.5106" y1="58.2152" x2="27.5106" y2="47.8051" gradientUnits="userSpaceOnUse">
<stop stop-color="#1E88E5"/>
<stop offset="1" stop-color="#1565C0"/>
</linearGradient>
<linearGradient id="paint7_linear_9_6" x1="46.569" y1="58.2152" x2="46.569" y2="47.8051" gradientUnits="userSpaceOnUse">
<stop stop-color="#1E88E5"/>
<stop offset="1" stop-color="#1565C0"/>
</linearGradient>
<linearGradient id="paint8_linear_9_6" x1="33.5398" y1="47.651" x2="33.5398" y2="54.2314" gradientUnits="userSpaceOnUse">
<stop stop-color="#AED581"/>
<stop offset="1" stop-color="#8BC34A"/>
</linearGradient>
<linearGradient id="paint9_linear_9_6" x1="40.4827" y1="46.6798" x2="40.4827" y2="54.4434" gradientUnits="userSpaceOnUse">
<stop stop-color="#AED581"/>
<stop offset="1" stop-color="#8BC34A"/>
</linearGradient>
</defs>
</svg>
